<svg width="14px" height="16px" viewBox="0 0 14 16" version="1.1" xmlns="http://www.w3.org/2000/svg"
     xmlns:xlink="http://www.w3.org/1999/xlink">
  <!-- Generator: Sketch 44.1 (41455) - http://www.bohemiancoding.com/sketch -->
  <g id="Page-1" stroke="none" stroke-width="1" fill="none" fill-rule="evenodd">
    <g id="垃圾桶" fill-rule="nonzero" fill="#1881DC">
      <path
        d="M6,1.71154534 L0.857142857,1.71154534 C0.629721428,1.71124199 0.411527209,1.80130608 0.250715831,1.96186039 C0.0899044534,2.12241471 -0.000303836651,2.34026013 1.62092563e-14,2.56731802 C1.62092563e-14,3.04312762 0.384,3.42309069 0.857142857,3.42309069 L12.8571429,3.42309069 C13.3337143,3.42309069 13.7142857,3.03970453 13.7142857,2.56731802 C13.7148949,2.3401671 13.6247846,2.12214443 13.4639069,1.9615239 C13.3030292,1.80090337 13.0846575,1.71093717 12.8571429,1.71154534 L7.71428571,1.71154534 L7.71428571,0.863759884 C7.71430601,0.389820344 7.33182093,0.00438253164 6.85714286,1.42108547e-14 C6.62861111,0.000601778946 6.40973014,0.0920539672 6.24888557,0.254140227 C6.08804101,0.416226488 5.99847971,0.635597707 6,0.863759884 L6,1.71154534 Z M2.85714286,14.2640189 L10.8571429,14.2640189 L10.8571429,6.12733233 C10.8571429,5.57963782 11.2377143,5.13463603 11.7142857,5.13463603 C12.1874286,5.13463603 12.5714286,5.58191988 12.5714286,6.12733233 L12.5714286,14.9817269 C12.5714973,15.0278659 12.5688259,15.0739683 12.5634286,15.1197916 C12.5634286,15.5921781 12.184,15.9755642 11.7062857,15.9755642 L2.008,15.9755642 C1.77988989,15.9764809 1.560874,15.8863367 1.39968184,15.7251879 C1.23848969,15.5640391 1.14849259,15.3452536 1.14971429,15.1175095 C1.1447489,15.0724232 1.14245919,15.0270832 1.14285714,14.9817269 L1.14285714,6.12733233 C1.14285714,5.57963782 1.52342857,5.13463603 2,5.13463603 C2.47314286,5.13463603 2.85714286,5.58191988 2.85714286,6.12733233 L2.85714286,14.2628779 L2.85714286,14.2640189 Z M4.34285714,5.98698562 C4.34285714,5.51574013 4.72342857,5.13463603 5.2,5.13463603 C5.67314286,5.13463603 6.05714286,5.52486837 6.05714286,5.98698562 L6.05714286,12.8434363 C6.05714469,13.0700878 5.96672956,13.2874066 5.80588477,13.4473519 C5.64503998,13.6072972 5.42701257,13.6966961 5.2,13.6957858 C4.72872186,13.6939261 4.3466087,13.3139498 4.34285714,12.8434363 L4.34285714,5.98584459 L4.34285714,5.98698562 Z M7.65714286,5.98698562 C7.65714286,5.51574013 8.03771429,5.13463603 8.51428571,5.13463603 C8.98742857,5.13463603 9.37142857,5.52486837 9.37142857,5.98698562 L9.37142857,12.8434363 C9.3714304,13.0700878 9.28101527,13.2874066 9.12017048,13.4473519 C8.9593257,13.6072972 8.74129828,13.6966961 8.51428571,13.6957858 C8.04300758,13.6939261 7.66089441,13.3139498 7.65714286,12.8434363 L7.65714286,5.98584459 L7.65714286,5.98698562 Z"
        id="Shape"/>
    </g>
  </g>
</svg>
