<?xml version="1.0" standalone="no"?><!DOCTYPE svg PUBLIC "-//W3C//DTD SVG 1.1//EN" "http://www.w3.org/Graphics/SVG/1.1/DTD/svg11.dtd"><svg t="1499242527540" class="icon" style="" viewBox="0 0 1025 1024" version="1.1" xmlns="http://www.w3.org/2000/svg" p-id="3550" xmlns:xlink="http://www.w3.org/1999/xlink" width="200.1953125" height="200"><defs><style type="text/css"></style></defs><path d="M923.648 755.2H99.84c-19.968 0-35.84 15.872-35.84 35.84v18.432c0 19.968 15.872 35.84 35.84 35.84h823.808c19.968 0 35.84-15.872 35.84-35.84v-18.432c0-19.968-16.384-35.84-35.84-35.84zM233.984 665.088h555.008c19.968 0 35.84-15.872 35.84-35.84v-18.432c0-19.968-15.872-35.84-35.84-35.84H233.984c-19.968 0-35.84 15.872-35.84 35.84v18.432c0 19.456 16.384 35.84 35.84 35.84zM233.984 466.944h555.008c19.968 0 35.84-15.872 35.84-35.84v-18.432c0-19.968-15.872-35.84-35.84-35.84H233.984c-19.968 0-35.84 15.872-35.84 35.84v18.432c0 19.456 16.384 35.84 35.84 35.84zM923.648 178.176H99.84c-19.968 0-35.84 15.872-35.84 35.84v18.432c0 19.968 15.872 35.84 35.84 35.84h823.808c19.968 0 35.84-15.872 35.84-35.84v-18.432c0-19.456-16.384-35.84-35.84-35.84z" fill="" p-id="3551"></path></svg>