<?xml version="1.0" standalone="no"?><!DOCTYPE svg PUBLIC "-//W3C//DTD SVG 1.1//EN" "http://www.w3.org/Graphics/SVG/1.1/DTD/svg11.dtd"><svg t="1499244797406" class="icon" style="" viewBox="0 0 1024 1024" version="1.1" xmlns="http://www.w3.org/2000/svg" p-id="1160" xmlns:xlink="http://www.w3.org/1999/xlink" width="200" height="200"><defs><style type="text/css"></style></defs><path d="M831.6 64.5H192.4C122 64.5 64.5 122 64.5 192.4v639.3c0 70.3 57.5 127.9 127.9 127.9h639.3c70.3 0 127.9-57.5 127.9-127.9V192.4c-0.1-70.4-57.6-127.9-128-127.9z m64 767.1c0 35.2-28.7 63.9-63.9 63.9H192.4c-35.2 0-63.9-28.7-63.9-63.9V192.4c0-35.2 28.7-63.9 63.9-63.9h639.3c35.2 0 63.9 28.7 63.9 63.9v639.2z" p-id="1161"></path></svg>