<svg class="icon" viewBox="0 0 1024 1024" xmlns="http://www.w3.org/2000/svg" width="200"
     height="200">
  <defs>
    <style/>
  </defs>
  <path
    d="M512 960C264.96 960 64 759.04 64 512S264.96 64 512 64s448 200.96 448 448-200.96 448-448 448zm0-832c-211.744 0-384 172.256-384 384s172.256 384 384 384 384-172.256 384-384-172.256-384-384-384z"
    fill="#888888"
  />
  <path
    d="M732.96 501.152c-.033-.127-.193-.256-.257-.383-1.536-3.616-3.648-7.072-6.592-10.048-.032-.033-.063-.033-.096-.064-.033-.032-.033-.063-.064-.096L567.04 331.201c-12.48-12.48-32.704-12.575-45.248-.063-12.512 12.48-12.543 32.736-.063 45.248l103.329 103.617H320c-17.665 0-32 14.336-32 32s14.337 32.001 32 32.001h306.753L520.64 648.964c-12.577 12.447-12.673 32.672-.257 45.248 6.24 6.336 14.496 9.504 22.752 9.504 8.128 0 16.255-3.103 22.496-9.248l160.256-158.495c9.44-9.38 11.84-23.206 7.072-34.82z"
    fill="#888888"
  />
</svg>
